<svg width="24" height="27" viewBox="0 0 24 27" fill="none" xmlns="http://www.w3.org/2000/svg">
<path d="M3.93287 25.7504C2.31312 25.7504 1 24.4029 1 22.7391V10.6364C1 9.72201 1.40563 8.85576 2.1 8.28513L10.1671 1.66038C10.6826 1.23356 11.3308 1 12 1C12.6692 1 13.3174 1.23356 13.8329 1.66038L21.8986 8.28513C22.5944 8.85576 23 9.72201 23 10.6364V22.7391C23 24.4029 21.6869 25.7504 20.0671 25.7504H3.93287Z" stroke="white" stroke-width="1.5" stroke-linecap="round" stroke-linejoin="round"/>
<path d="M8.5625 25.75V18.1875C8.5625 17.4582 8.85223 16.7587 9.36796 16.243C9.88368 15.7272 10.5832 15.4375 11.3125 15.4375H12.6875C13.4168 15.4375 14.1163 15.7272 14.632 16.243C15.1478 16.7587 15.4375 17.4582 15.4375 18.1875V25.75" stroke="white" stroke-width="1.5" stroke-linecap="round" stroke-linejoin="round"/>
</svg>
